<svg width="32" height="32" viewBox="0 0 32 32" fill="none" xmlns="http://www.w3.org/2000/svg">
<path d="M19.2628 24.4133C19.0496 25.1667 18.6025 25.8329 17.9862 26.3157C17.3698 26.7985 16.616 27.0731 15.8335 27.0998C15.7895 27.0998 15.746 27.0998 15.7029 27.0998H10.6182L0 4.89844H10.6062L15.91 16.0044C15.91 16.0044 19.7791 22.5883 19.2628 24.4133Z" fill="#1B1B1B"/>
<path d="M19.263 24.4133C19.7792 22.5883 15.9102 16.0088 15.9102 16.0088H21.6447L19.263 24.4133Z" fill="#1B1B1B"/>
<path d="M21.6445 16.0044H32.0001V4.89844H27.8639C27.0778 4.89822 26.3121 5.14849 25.6779 5.61293C25.0437 6.07738 24.574 6.73183 24.337 7.48132L21.6445 16.0044Z" fill="#1B1B1B"/>
</svg>
